<svg width="740" height="371" viewBox="0 0 740 371" fill="none" xmlns="http://www.w3.org/2000/svg">
<rect width="740" height="371" rx="5" fill="#E8E8E8"/>
<path fill-rule="evenodd" clip-rule="evenodd" d="M318.32 215.962C318.404 216.111 318.448 216.28 318.448 216.451V222C318.448 222.552 318.896 223 319.448 223H321.539C322.092 223 322.539 222.552 322.539 222V216.451C322.539 216.28 322.584 216.111 322.667 215.962L325.612 210.711C325.789 210.395 326.123 210.2 326.485 210.2L338.694 210.2C339.246 210.2 339.694 209.752 339.694 209.2V208C339.694 207.448 339.246 207 338.694 207H327.694H324.494H323.966C323.584 207 323.235 207.218 323.068 207.561L321.392 210.988C321.027 211.736 319.961 211.736 319.595 210.988L317.92 207.561C317.752 207.218 317.404 207 317.022 207H315.001C314.237 207 313.755 207.823 314.129 208.489L318.32 215.962Z" fill="white"/>
<path fill-rule="evenodd" clip-rule="evenodd" d="M339.694 214.4C339.694 213.848 339.246 213.4 338.694 213.4H328.694C328.142 213.4 327.694 213.848 327.694 214.4V216.6C327.694 216.6 327.694 216.6 327.694 216.6C327.694 216.6 327.694 216.6 327.694 216.6V219.8V220.089V222C327.694 222.552 328.142 223 328.694 223L338.694 223C339.246 223 339.694 222.552 339.694 222V220.8C339.694 220.247 339.246 219.8 338.694 219.8H331.894C331.342 219.8 330.894 219.352 330.894 218.8V217.6C330.894 217.048 331.342 216.6 331.894 216.6L338.694 216.6C339.246 216.6 339.694 216.152 339.694 215.6V214.4Z" fill="white"/>
<path d="M346.336 207H343.56C343.178 207 342.937 207.412 343.124 207.745L344.512 210.213C344.703 210.553 345.193 210.553 345.384 210.213L346.772 207.745C346.959 207.412 346.719 207 346.336 207Z" fill="white"/>
<path d="M412.679 207H409.903C409.52 207 409.28 207.412 409.467 207.745L410.855 210.213C411.046 210.553 411.535 210.553 411.727 210.213L413.115 207.745C413.302 207.412 413.061 207 412.679 207Z" fill="white"/>
<path d="M413.292 222C413.292 222.552 412.844 223 412.292 223H410.292C409.74 223 409.292 222.552 409.292 222V214.33C409.292 213.778 409.74 213.33 410.292 213.33H412.292C412.844 213.33 413.292 213.778 413.292 214.33V222Z" fill="white"/>
<path d="M391.693 222C391.693 222.552 391.245 223 390.693 223H389.093C388.54 223 388.093 222.552 388.093 222V215.257C388.093 215.019 387.749 214.981 387.698 215.214L386.137 222.217C386.035 222.674 385.629 223 385.161 223H383.679C383.227 223 382.831 222.697 382.714 222.26L380.753 214.999C380.692 214.774 380.36 214.818 380.36 215.052V222C380.36 222.552 379.913 223 379.36 223H378.293C377.741 223 377.293 222.552 377.293 222V208C377.293 207.448 377.741 207 378.293 207H381.196C381.655 207 382.055 207.312 382.166 207.757L384.386 216.616C384.438 216.823 384.735 216.816 384.776 216.607L386.519 207.806C386.612 207.337 387.022 207 387.5 207H390.693C391.245 207 391.693 207.448 391.693 208V222Z" fill="white"/>
<path d="M407.692 222C407.692 222.552 407.244 223 406.692 223H405.092C404.54 223 404.092 222.552 404.092 222V215.257C404.092 215.019 403.749 214.981 403.697 215.214L402.136 222.217C402.034 222.674 401.628 223 401.16 223H399.679C399.227 223 398.831 222.697 398.713 222.26L396.753 214.999C396.692 214.774 396.36 214.818 396.36 215.052V222C396.36 222.552 395.912 223 395.36 223H394.292C393.74 223 393.292 222.552 393.292 222V208C393.292 207.448 393.74 207 394.292 207H397.196C397.654 207 398.054 207.312 398.166 207.757L400.386 216.616C400.438 216.823 400.734 216.816 400.776 216.607L402.518 207.806C402.611 207.337 403.022 207 403.499 207H406.692C407.244 207 407.692 207.448 407.692 208V222Z" fill="white"/>
<path d="M371.972 217.114V208C371.972 207.448 372.42 207 372.972 207H374.693C375.245 207 375.693 207.448 375.693 208V217.095C375.693 221.224 373.842 223 370.102 223C366.363 223 364.493 221.224 364.493 217.095V208C364.493 207.448 364.941 207 365.493 207H367.214C367.766 207 368.214 207.448 368.214 208V217.114C368.214 218.93 368.654 219.768 370.102 219.768C371.55 219.768 371.972 218.93 371.972 217.114Z" fill="white"/>
<path d="M362.388 210.685C362.554 211.151 362.237 211.62 361.76 211.754L360.11 212.218C359.596 212.362 359.073 212.066 358.797 211.607C358.347 210.857 357.622 210.254 356.513 210.254C355.221 210.254 354.557 210.839 354.557 211.443C354.557 212.067 355.24 212.457 356.759 212.827C360.482 213.723 362.893 215.126 362.893 217.933C362.893 221.421 360.14 223 356.816 223C353.365 223 351.316 221.608 350.386 219.265C350.189 218.77 350.492 218.237 351 218.078L352.856 217.498C353.393 217.33 353.951 217.653 354.269 218.117C354.82 218.918 355.75 219.472 356.93 219.472C358.146 219.472 358.735 219.063 358.735 218.459C358.735 217.446 357.956 217.134 356.74 216.841C352.43 215.809 350.493 214.561 350.493 211.853C350.493 209.105 352.525 207 356.721 207C359.333 207 361.665 208.651 362.388 210.685Z" fill="white"/>
<path d="M422.554 222C422.554 222.552 422.106 223 421.554 223H419.43C418.878 223 418.43 222.552 418.43 222V211.574C418.43 211.021 417.982 210.574 417.43 210.574H415.892C415.34 210.574 414.892 210.126 414.892 209.574V208C414.892 207.448 415.34 207 415.892 207H425.092C425.644 207 426.092 207.448 426.092 208V209.574C426.092 210.126 425.644 210.574 425.092 210.574H423.554C423.002 210.574 422.554 211.021 422.554 211.574V222Z" fill="white"/>
<path d="M346.393 213.33L343.394 213.33C343.117 213.33 342.894 213.554 342.894 213.83V219.078C342.894 219.355 343.117 219.578 343.394 219.578H344.182C344.458 219.578 344.695 219.804 344.651 220.077C344.605 220.369 344.494 220.731 344.235 220.998C343.997 221.255 343.787 221.404 343.6 221.504C343.332 221.646 343.201 221.956 343.35 222.221L343.6 222.666C343.711 222.863 343.94 222.964 344.159 222.906C344.634 222.781 345.076 222.617 345.85 222.022C346.844 221.231 346.893 219.858 346.893 219.462V213.83C346.893 213.554 346.67 213.33 346.393 213.33Z" fill="white"/>
<path d="M345.006 156.375C345.006 154.717 345.665 153.128 346.837 151.956C348.009 150.783 349.599 150.125 351.256 150.125H388.756C390.414 150.125 392.004 150.783 393.176 151.956C394.348 153.128 395.006 154.717 395.006 156.375V187.625C395.006 189.283 394.348 190.872 393.176 192.044C392.004 193.217 390.414 193.875 388.756 193.875H351.256C349.599 193.875 348.009 193.217 346.837 192.044C345.665 190.872 345.006 189.283 345.006 187.625V156.375ZM348.131 184.5V187.625C348.131 188.454 348.461 189.249 349.047 189.835C349.633 190.421 350.428 190.75 351.256 190.75H388.756C389.585 190.75 390.38 190.421 390.966 189.835C391.552 189.249 391.881 188.454 391.881 187.625V176.688L380.078 170.603C379.785 170.456 379.453 170.405 379.13 170.458C378.806 170.51 378.507 170.662 378.275 170.894L366.681 182.487L358.369 176.95C358.069 176.75 357.709 176.66 357.35 176.696C356.991 176.731 356.656 176.889 356.4 177.144L348.131 184.5ZM363.756 164.188C363.756 162.944 363.262 161.752 362.383 160.873C361.504 159.994 360.312 159.5 359.069 159.5C357.826 159.5 356.633 159.994 355.754 160.873C354.875 161.752 354.381 162.944 354.381 164.188C354.381 165.431 354.875 166.623 355.754 167.502C356.633 168.381 357.826 168.875 359.069 168.875C360.312 168.875 361.504 168.381 362.383 167.502C363.262 166.623 363.756 165.431 363.756 164.188Z" fill="white"/>
</svg>
