<svg width="550" height="60" viewBox="0 0 550 60" fill="none" xmlns="http://www.w3.org/2000/svg">
<rect width="550" height="60" rx="12" fill="#FEE500"/>
<g clip-path="url(#clip0_225_3920)">
<path fill-rule="evenodd" clip-rule="evenodd" d="M69 13.2C59.0583 13.2 51 19.4259 51 27.1046C51 31.8801 54.1168 36.09 58.863 38.5939L56.8661 45.889C56.6896 46.5336 57.4268 47.0474 57.9929 46.6739L66.7467 40.8964C67.4854 40.9677 68.2362 41.0093 69 41.0093C78.9409 41.0093 86.9999 34.7836 86.9999 27.1046C86.9999 19.4259 78.9409 13.2 69 13.2Z" fill="black"/>
</g>
<path d="M225.43 17.93C225.4 27.08 221.23 33.2 213.58 37.22L211.6 35C215.47 33.23 218.71 30.38 220.54 26.69L212.71 27.53L212.23 24.86L221.56 24.17C221.89 22.97 222.13 21.74 222.22 20.42H213.58V17.93H225.43ZM232.66 15.14V25.58H236.8V28.13H232.66V41.87H229.57V15.14H232.66ZM251.387 17.93C251.357 27.08 247.187 33.2 239.537 37.22L237.557 35C241.427 33.23 244.667 30.38 246.497 26.69L238.667 27.53L238.187 24.86L247.517 24.17C247.847 22.97 248.087 21.74 248.177 20.42H239.537V17.93H251.387ZM258.617 15.14V25.58H262.757V28.13H258.617V41.87H255.527V15.14H258.617ZM287.964 38.45H263.814V35.99H274.314V31.43C269.364 30.95 266.214 28.13 266.214 24.14C266.214 19.73 270.084 16.79 275.874 16.79C281.754 16.79 285.594 19.73 285.594 24.14C285.594 28.16 282.384 30.98 277.374 31.46V35.99H287.964V38.45ZM282.504 24.17C282.504 21.32 279.894 19.31 275.874 19.31C271.944 19.31 269.304 21.32 269.304 24.17C269.304 26.99 271.944 28.91 275.874 28.91C279.864 28.91 282.504 26.99 282.504 24.17ZM319.462 31.55H311.212V36.02H321.802V38.48H297.652V36.02H308.152V31.55H300.742V22.91H315.622V19.46H300.652V17H318.682V25.4H303.832V29.06H319.462V31.55ZM347.759 37.97H323.609V35.48H347.759V37.97ZM344.609 18.02C344.609 25.1 344.159 30.11 343.439 33.62L340.409 33.23C341.069 30.56 341.519 24.77 341.519 20.45H326.399V18.02H344.609ZM371.556 34.52H368.496V15.14H371.556V34.52ZM372.186 41.09H353.886V32.69H356.946V38.63H372.186V41.09ZM364.056 23.66C364.056 27.47 361.296 30.2 357.216 30.2C353.136 30.2 350.316 27.47 350.316 23.69C350.316 19.88 353.106 17.12 357.216 17.12C361.296 17.12 364.056 19.85 364.056 23.66ZM360.996 23.66C360.996 21.32 359.556 19.67 357.216 19.67C354.936 19.67 353.406 21.38 353.406 23.66C353.406 25.85 354.936 27.59 357.216 27.59C359.556 27.59 360.996 25.85 360.996 23.66Z" fill="black" fill-opacity="0.85"/>
<defs>
<clipPath id="clip0_225_3920">
<rect width="35.9999" height="36" fill="white" transform="translate(51 12)"/>
</clipPath>
</defs>
</svg>
