<svg width="120" height="120" viewBox="0 0 120 120" fill="none" xmlns="http://www.w3.org/2000/svg">
<rect x="96.5229" y="34.56" width="11.2145" height="10.2477" rx="3" fill="white"/>
<rect width="120" height="120" rx="20" fill="#FF582D"/>
<g filter="url(#filter0_d_458_3521)">
<path d="M85.4004 34.5601L47.52 34.5601V45.0564L85.4004 45.0564C87.0572 45.0564 88.4004 43.7133 88.4004 42.0564V37.5601C88.4004 35.9033 87.0572 34.5601 85.4004 34.5601Z" fill="white"/>
<path opacity="0.35" d="M85.4004 34.5601L47.52 34.5601V45.0564L85.4004 45.0564C87.0573 45.0564 88.4004 43.7133 88.4004 42.0564V37.5601C88.4004 35.9033 87.0572 34.5601 85.4004 34.5601Z" fill="url(#paint0_linear_458_3521)"/>
<path d="M85.512 75.5593L55.2002 75.5593V82.809C55.2002 84.4659 56.5433 85.809 58.2002 85.809L85.512 85.809C87.1688 85.809 88.512 84.4659 88.512 82.809V78.5593C88.512 76.9024 87.1688 75.5593 85.512 75.5593Z" fill="white"/>
<path d="M85.512 55.0595L58.2002 55.0595C56.5433 55.0595 55.2002 56.4027 55.2002 58.0595V65.3093L85.512 65.3093C87.1688 65.3093 88.512 63.9661 88.512 62.3093V58.0595C88.512 56.4027 87.1688 55.0595 85.512 55.0595Z" fill="white"/>
<path d="M65.45 65.3098L55.2002 65.3098V75.5596L65.45 75.5596V65.3098Z" fill="white"/>
<path d="M41.6144 82.8089C41.6144 84.4658 40.2713 85.8089 38.6144 85.8089H31.5096C29.8527 85.8089 28.5096 84.4658 28.5096 82.8089V64.7791C28.5096 64.2652 28.3775 63.7598 28.1261 63.3116L13.6705 37.5384C12.9228 36.2052 13.8863 34.56 15.4149 34.56H24.0673C25.2133 34.56 26.2592 35.2129 26.7625 36.2424L34.1636 51.3821C34.5292 52.1299 35.5949 52.1299 35.9604 51.3821L42.8132 37.3641C43.6521 35.6481 45.3952 34.56 47.3052 34.56H54.7092C56.2377 34.56 57.2013 36.2052 56.4535 37.5384L41.9979 63.3116C41.7465 63.7599 41.6144 64.2652 41.6144 64.7791V82.8089Z" fill="white"/>
<path d="M107.733 65.3101H96.5225V71.8517C96.5225 73.5086 97.8656 74.8517 99.5225 74.8517H100.536C101.088 74.8517 101.554 75.2993 101.512 75.8501C101.438 76.8385 101.175 78.3482 100.283 79.3989C99.3756 80.5155 98.6163 80.9998 97.9662 81.3047C97.4526 81.5455 97.2183 82.1328 97.4689 82.6417L98.6594 85.0588C98.8734 85.4933 99.369 85.7153 99.8342 85.5806C101.261 85.1675 102.512 84.6965 104.809 82.6788C107.594 80.1443 107.733 75.7463 107.733 74.479V65.3101Z" fill="white"/>
<rect x="96.5225" y="55.0004" width="11.2145" height="16.0207" rx="3" fill="white"/>
<rect x="96.5225" y="34.5601" width="11.2145" height="10.2477" rx="3" fill="white"/>
</g>
<path fill-rule="evenodd" clip-rule="evenodd" d="M99.5229 34.56C97.8661 34.56 96.5229 35.9031 96.5229 37.56V41.8077C96.5229 42.6816 96.8966 43.4682 97.4928 44.0165L106.935 35.5182C106.388 34.9288 105.606 34.56 104.737 34.56H99.5229Z" fill="white"/>
<defs>
<filter id="filter0_d_458_3521" x="8.41211" y="29.56" width="104.325" height="61.249" filterUnits="userSpaceOnUse" color-interpolation-filters="sRGB">
<feFlood flood-opacity="0" result="BackgroundImageFix"/>
<feColorMatrix in="SourceAlpha" type="matrix" values="0 0 0 0 0 0 0 0 0 0 0 0 0 0 0 0 0 0 127 0" result="hardAlpha"/>
<feOffset/>
<feGaussianBlur stdDeviation="2.5"/>
<feComposite in2="hardAlpha" operator="out"/>
<feColorMatrix type="matrix" values="0 0 0 0 0.328532 0 0 0 0 0.190528 0 0 0 0 0.154994 0 0 0 0.5 0"/>
<feBlend mode="normal" in2="BackgroundImageFix" result="effect1_dropShadow_458_3521"/>
<feBlend mode="normal" in="SourceGraphic" in2="effect1_dropShadow_458_3521" result="shape"/>
</filter>
<linearGradient id="paint0_linear_458_3521" x1="77.52" y1="44.1601" x2="57.36" y2="34.5601" gradientUnits="userSpaceOnUse">
<stop stop-color="white"/>
<stop offset="0.777537" stop-color="#FFAA95"/>
<stop offset="1" stop-color="#FF582D"/>
</linearGradient>
</defs>
</svg>
